<svg xmlns="http://www.w3.org/2000/svg" width="1088" height="493" viewBox="0 0 1088 493">
  
    <g transform="translate(557.60 234.60) rotate(-2.865)" opacity="0.495">
      <path d="M455.93 0.00 L442.72 23.48 L435.78 47.30 L395.47 67.01 L367.32 88.12 L324.65 105.99 L272.31 120.15 L217.91 132.80 L164.04 147.06 L102.91 158.64 L35.35 165.95 L-36.02 169.12 L-100.66 155.17 L-158.77 142.34 L-232.51 141.70 L-302.46 133.45 L-345.42 112.77 L-380.83 91.36 L-390.69 66.20 L-420.01 45.58 L-449.96 23.86 L-462.29 0.00 L-445.34 -23.62 L-435.61 -47.28 L-429.80 -72.83 L-369.12 -88.55 L-320.52 -104.64 L-286.87 -126.57 L-215.87 -131.55 L-176.25 -158.01 L-106.85 -164.72 L-36.20 -169.95 L34.37 -161.36 L102.05 -157.31 L164.46 -147.44 L220.90 -134.62 L294.64 -130.00 L320.15 -104.52 L384.68 -92.28 L407.08 -68.98 L444.50 -48.24 L442.02 -23.44 L476.67 -0.00 Z" fill="none" stroke="#FF2B2B" stroke-width="10.20" stroke-linejoin="round"/>
      <text x="12.75" y="27.54" fill="#FF2B2B"
        font-family=""Helvetica Neue", Helvetica, Arial, sans-serif" font-weight="700" font-size="76.50"
        letter-spacing="25.50" text-anchor="middle">BAD FORM</text>
    </g>
    <g transform="translate(544.00 246.50) rotate(-2.865)" opacity="0.9">
      <path d="M455.93 0.00 L442.72 23.48 L435.78 47.30 L395.47 67.01 L367.32 88.12 L324.65 105.99 L272.31 120.15 L217.91 132.80 L164.04 147.06 L102.91 158.64 L35.35 165.95 L-36.02 169.12 L-100.66 155.17 L-158.77 142.34 L-232.51 141.70 L-302.46 133.45 L-345.42 112.77 L-380.83 91.36 L-390.69 66.20 L-420.01 45.58 L-449.96 23.86 L-462.29 0.00 L-445.34 -23.62 L-435.61 -47.28 L-429.80 -72.83 L-369.12 -88.55 L-320.52 -104.64 L-286.87 -126.57 L-215.87 -131.55 L-176.25 -158.01 L-106.85 -164.72 L-36.20 -169.95 L34.37 -161.36 L102.05 -157.31 L164.46 -147.44 L220.90 -134.62 L294.64 -130.00 L320.15 -104.52 L384.68 -92.28 L407.08 -68.98 L444.50 -48.24 L442.02 -23.44 L476.67 -0.00 Z" fill="none" stroke="#0000FF" stroke-width="10.20" stroke-linejoin="round"/>
      <text x="12.75" y="27.54" fill="#0000FF"
        font-family=""Helvetica Neue", Helvetica, Arial, sans-serif" font-weight="700" font-size="76.50"
        letter-spacing="25.50" text-anchor="middle">BAD FORM</text>
    </g>
</svg>
